<?xml version="1.0" encoding="UTF-8" standalone="no"?>
<!-- Created with Inkscape (http://www.inkscape.org/) -->

<svg
   xmlns:dc="http://purl.org/dc/elements/1.1/"
   xmlns:cc="http://creativecommons.org/ns#"
   xmlns:rdf="http://www.w3.org/1999/02/22-rdf-syntax-ns#"
   xmlns:svg="http://www.w3.org/2000/svg"
   xmlns="http://www.w3.org/2000/svg"
   xmlns:sodipodi="http://sodipodi.sourceforge.net/DTD/sodipodi-0.dtd"
   xmlns:inkscape="http://www.inkscape.org/namespaces/inkscape"
   width="60"
   height="380"
   viewBox="0 0 15.874999 100.54167"
   version="1.1"
   id="svg8"
   inkscape:version="0.92.2 5c3e80d, 2017-08-06"
   sodipodi:docname="beeSting.svg">
  <defs
     id="defs2" />
  <sodipodi:namedview
     id="base"
     pagecolor="#ffffff"
     bordercolor="#666666"
     borderopacity="1.0"
     inkscape:pageopacity="0.0"
     inkscape:pageshadow="2"
     inkscape:zoom="7.1827163"
     inkscape:cx="11.640178"
     inkscape:cy="290.62013"
     inkscape:document-units="px"
     inkscape:current-layer="layer8"
     showgrid="true"
     units="px"
     inkscape:window-width="1920"
     inkscape:window-height="1178"
     inkscape:window-x="0"
     inkscape:window-y="0"
     inkscape:window-maximized="1"
     showguides="true"
     inkscape:guide-bbox="true">
    <sodipodi:guide
       position="0,64.822919"
       orientation="1,0"
       id="guide900"
       inkscape:locked="false" />
    <sodipodi:guide
       position="-22.489583,0"
       orientation="0,1"
       id="guide902"
       inkscape:locked="false" />
    <sodipodi:guide
       position="3.9687499,18.520834"
       orientation="1,0"
       id="guide904"
       inkscape:locked="false" />
    <sodipodi:guide
       position="7.9374997,7.9375003"
       orientation="1,0"
       id="guide906"
       inkscape:locked="false" />
    <sodipodi:guide
       position="11.90625,0"
       orientation="1,0"
       id="guide908"
       inkscape:locked="false" />
    <sodipodi:guide
       position="15.874999,3.9687501"
       orientation="1,0"
       id="guide910"
       inkscape:locked="false" />
    <sodipodi:guide
       position="19.843749,5.2916668"
       orientation="1,0"
       id="guide912"
       inkscape:locked="false" />
    <sodipodi:guide
       position="23.812499,0"
       orientation="1,0"
       id="guide914"
       inkscape:locked="false" />
    <sodipodi:guide
       position="27.781249,2.6458334"
       orientation="1,0"
       id="guide916"
       inkscape:locked="false" />
    <sodipodi:guide
       position="31.749999,13.229167"
       orientation="1,0"
       id="guide918"
       inkscape:locked="false" />
    <inkscape:grid
       type="xygrid"
       id="grid915"
       empcolor="#ff933f"
       empopacity="0.25098039"
       empspacing="5"
       snapvisiblegridlinesonly="false"
       spacingx="0.052916666"
       spacingy="0.052916666" />
    <sodipodi:guide
       position="-19.314583,92.657082"
       orientation="0,1"
       id="guide917"
       inkscape:locked="false" />
  </sodipodi:namedview>
  <metadata
     id="metadata5">
    <rdf:RDF>
      <cc:Work
         rdf:about="">
        <dc:format>image/svg+xml</dc:format>
        <dc:type
           rdf:resource="http://purl.org/dc/dcmitype/StillImage" />
        <dc:title></dc:title>
      </cc:Work>
    </rdf:RDF>
  </metadata>
  <g
     inkscape:label="Base"
     inkscape:groupmode="layer"
     id="layer1"
     transform="translate(0,-196.45832)">
    <rect
       style="opacity:1;fill:#001932;fill-opacity:1;stroke:#cd8f50;stroke-width:0.18685421;stroke-miterlimit:4;stroke-dasharray:none;stroke-opacity:1"
       id="rect12"
       width="15.844767"
       height="100.48119"
       x="0.030233467"
       y="196.48854" />
  </g>
  <g
     inkscape:groupmode="layer"
     id="layer2"
     inkscape:label="Frame">
    <rect
       style="opacity:1;fill:#000009;fill-opacity:0;stroke:#90b0c0;stroke-width:0.5291667;stroke-linejoin:round;stroke-miterlimit:4;stroke-dasharray:none;stroke-opacity:1"
       id="rect831"
       width="15.780953"
       height="100.35355"
       x="0.094046451"
       y="0.094046451" />
  </g>
  <g
     inkscape:groupmode="layer"
     id="layer8"
     inkscape:label="Text">
    <g
       aria-label="bitFetcher"
       style="font-style:italic;font-variant:normal;font-weight:500;font-stretch:normal;font-size:2.11666656px;line-height:1.25;font-family:Lato;-inkscape-font-specification:'Lato, Medium Italic';font-variant-ligatures:normal;font-variant-position:normal;font-variant-caps:normal;font-variant-numeric:normal;font-variant-alternates:normal;font-feature-settings:normal;text-indent:0;text-align:start;text-decoration:none;text-decoration-line:none;text-decoration-style:solid;text-decoration-color:#000000;letter-spacing:0px;word-spacing:0px;text-transform:none;writing-mode:lr-tb;direction:ltr;text-orientation:mixed;dominant-baseline:auto;baseline-shift:baseline;text-anchor:start;white-space:normal;shape-padding:0;opacity:1;vector-effect:none;fill:#ffd700;fill-opacity:1;stroke:none;stroke-width:0.26458332;stroke-linecap:butt;stroke-linejoin:miter;stroke-miterlimit:4;stroke-dasharray:none;stroke-dashoffset:0;stroke-opacity:1"
       id="text1440">
      <path
         d="m 3.9909743,98.979574 q 0.040217,0.05186 0.093133,0.07303 0.053975,0.02117 0.1090083,0.02117 0.052917,0 0.099483,-0.02223 0.046567,-0.02223 0.085725,-0.06033 0.039158,-0.03916 0.068792,-0.09102 0.030692,-0.05186 0.051858,-0.110066 0.021167,-0.05927 0.03175,-0.122767 0.011642,-0.0635 0.011642,-0.125942 0,-0.122766 -0.043392,-0.185208 -0.042333,-0.0635 -0.1217083,-0.0635 -0.048683,0 -0.099483,0.03175 -0.049742,0.03069 -0.096308,0.08678 -0.046567,0.05503 -0.087842,0.131234 -0.040217,0.07514 -0.068792,0.164041 z m 0.070908,-0.579966 q 0.039158,-0.06244 0.084667,-0.112184 0.045508,-0.0508 0.09525,-0.08572 0.0508,-0.03598 0.1037167,-0.05503 0.053975,-0.01905 0.1100667,-0.01905 0.136525,0 0.2137833,0.09948 0.078317,0.09948 0.078317,0.294217 0,0.08784 -0.01905,0.175683 -0.017992,0.08678 -0.051858,0.166159 -0.032808,0.07937 -0.080433,0.147108 -0.047625,0.06773 -0.1058333,0.117475 -0.058208,0.04974 -0.1259417,0.07832 -0.066675,0.02752 -0.1407583,0.02752 -0.084667,0 -0.1534584,-0.03493 -0.067733,-0.03598 -0.1121833,-0.09948 l -0.013758,0.06033 q -0.00847,0.03069 -0.023283,0.04551 -0.014817,0.01376 -0.048683,0.01376 H 3.761318 l 0.1894417,-1.5621 h 0.2021416 z"
         style="font-style:italic;font-variant:normal;font-weight:500;font-stretch:normal;font-size:2.11666656px;line-height:1.25;font-family:Lato;-inkscape-font-specification:'Lato, Medium Italic';font-variant-ligatures:normal;font-variant-position:normal;font-variant-caps:normal;font-variant-numeric:normal;font-variant-alternates:normal;font-feature-settings:normal;text-indent:0;text-align:start;text-decoration:none;text-decoration-line:none;text-decoration-style:solid;text-decoration-color:#000000;letter-spacing:0px;word-spacing:0px;text-transform:none;writing-mode:lr-tb;direction:ltr;text-orientation:mixed;dominant-baseline:auto;text-anchor:start;white-space:normal;shape-padding:0;vector-effect:none;fill:#ffd700;fill-opacity:1;stroke:none;stroke-width:0.26458332;stroke-linecap:butt;stroke-linejoin:miter;stroke-miterlimit:4;stroke-dasharray:none;stroke-dashoffset:0;stroke-opacity:1"
         id="path5813"
         inkscape:connector-curvature="0" />
      <path
         d="m 5.2297533,98.143491 -0.130175,1.075267 h -0.2032 L 5.025495,98.143491 Z m 0.06985,-0.332317 q 0,0.02858 -0.0127,0.05503 -0.011642,0.0254 -0.03175,0.04551 -0.01905,0.01905 -0.04445,0.03069 -0.0254,0.01058 -0.051858,0.01058 -0.026458,0 -0.0508,-0.01058 -0.024342,-0.01164 -0.043392,-0.03069 -0.017992,-0.02011 -0.029633,-0.04551 -0.010583,-0.02646 -0.010583,-0.05503 0,-0.02857 0.010583,-0.05397 0.011642,-0.02646 0.030692,-0.04551 0.01905,-0.02011 0.043392,-0.03175 0.0254,-0.01164 0.051858,-0.01164 0.026458,0 0.051858,0.01164 0.0254,0.01058 0.04445,0.03069 0.01905,0.01905 0.030692,0.04551 0.011642,0.0254 0.011642,0.05503 z"
         style="font-style:italic;font-variant:normal;font-weight:500;font-stretch:normal;font-size:2.11666656px;line-height:1.25;font-family:Lato;-inkscape-font-specification:'Lato, Medium Italic';font-variant-ligatures:normal;font-variant-position:normal;font-variant-caps:normal;font-variant-numeric:normal;font-variant-alternates:normal;font-feature-settings:normal;text-indent:0;text-align:start;text-decoration:none;text-decoration-line:none;text-decoration-style:solid;text-decoration-color:#000000;letter-spacing:0px;word-spacing:0px;text-transform:none;writing-mode:lr-tb;direction:ltr;text-orientation:mixed;dominant-baseline:auto;text-anchor:start;white-space:normal;shape-padding:0;vector-effect:none;fill:#ffd700;fill-opacity:1;stroke:none;stroke-width:0.26458332;stroke-linecap:butt;stroke-linejoin:miter;stroke-miterlimit:4;stroke-dasharray:none;stroke-dashoffset:0;stroke-opacity:1"
         id="path5815"
         inkscape:connector-curvature="0" />
      <path
         d="m 5.4686721,99.011324 q 0,-0.0063 0,-0.01588 0,-0.01058 0.00106,-0.02963 0.00212,-0.01905 0.00529,-0.0508 0.00423,-0.03175 0.010583,-0.08149 l 0.064558,-0.522816 H 5.4348054 q -0.015875,0 -0.026458,-0.01058 -0.00953,-0.01164 -0.00635,-0.03387 l 0.00953,-0.08361 0.1640416,-0.02434 0.08255,-0.320675 q 0.00529,-0.01799 0.016933,-0.02752 0.0127,-0.01058 0.030692,-0.01058 h 0.1100667 l -0.045508,0.360891 H 6.046522 L 6.029589,98.310708 H 5.7523054 l -0.0635,0.512233 q -0.00529,0.04339 -0.00847,0.06985 -0.00317,0.02646 -0.00529,0.04233 -0.00106,0.01482 -0.00212,0.02117 0,0.0064 0,0.0095 0,0.04974 0.024342,0.07514 0.024342,0.0254 0.064558,0.0254 0.026458,0 0.045508,-0.0074 0.020108,-0.0074 0.034925,-0.01587 0.014817,-0.0095 0.024342,-0.01693 0.010583,-0.0074 0.01905,-0.0074 0.00953,0 0.014817,0.0053 0.00529,0.0042 0.010583,0.01482 l 0.043392,0.09948 q -0.053975,0.04657 -0.12065,0.07197 -0.066675,0.0254 -0.1344083,0.0254 -0.1058333,0 -0.1672166,-0.05715 -0.061383,-0.05821 -0.0635,-0.167217 z"
         style="font-style:italic;font-variant:normal;font-weight:500;font-stretch:normal;font-size:2.11666656px;line-height:1.25;font-family:Lato;-inkscape-font-specification:'Lato, Medium Italic';font-variant-ligatures:normal;font-variant-position:normal;font-variant-caps:normal;font-variant-numeric:normal;font-variant-alternates:normal;font-feature-settings:normal;text-indent:0;text-align:start;text-decoration:none;text-decoration-line:none;text-decoration-style:solid;text-decoration-color:#000000;letter-spacing:0px;word-spacing:0px;text-transform:none;writing-mode:lr-tb;direction:ltr;text-orientation:mixed;dominant-baseline:auto;text-anchor:start;white-space:normal;shape-padding:0;vector-effect:none;fill:#ffd700;fill-opacity:1;stroke:none;stroke-width:0.26458332;stroke-linecap:butt;stroke-linejoin:miter;stroke-miterlimit:4;stroke-dasharray:none;stroke-dashoffset:0;stroke-opacity:1"
         id="path5817"
         inkscape:connector-curvature="0" />
      <path
         d="m 6.5380187,97.875733 -0.0635,0.519641 h 0.555625 l -0.023283,0.176742 h -0.554567 l -0.079375,0.646642 H 6.1549021 L 6.3411687,97.698991 H 7.212177 l -0.022225,0.176742 z"
         style="font-style:italic;font-variant:normal;font-weight:500;font-stretch:normal;font-size:2.11666656px;line-height:1.25;font-family:Lato;-inkscape-font-specification:'Lato, Medium Italic';font-variant-ligatures:normal;font-variant-position:normal;font-variant-caps:normal;font-variant-numeric:normal;font-variant-alternates:normal;font-feature-settings:normal;text-indent:0;text-align:start;text-decoration:none;text-decoration-line:none;text-decoration-style:solid;text-decoration-color:#000000;letter-spacing:0px;word-spacing:0px;text-transform:none;writing-mode:lr-tb;direction:ltr;text-orientation:mixed;dominant-baseline:auto;text-anchor:start;white-space:normal;shape-padding:0;vector-effect:none;fill:#ffd700;fill-opacity:1;stroke:none;stroke-width:0.26458332;stroke-linecap:butt;stroke-linejoin:miter;stroke-miterlimit:4;stroke-dasharray:none;stroke-dashoffset:0;stroke-opacity:1"
         id="path5819"
         inkscape:connector-curvature="0" />
      <path
         d="m 7.6933548,98.275783 q -0.0635,0 -0.1164167,0.02646 -0.052917,0.0254 -0.09525,0.07197 -0.042333,0.04551 -0.071967,0.10795 -0.029633,0.06138 -0.046567,0.134408 0.155575,-0.02011 0.2487083,-0.04445 0.094192,-0.02434 0.1449917,-0.05292 0.0508,-0.02963 0.066675,-0.06244 0.016933,-0.03281 0.016933,-0.06985 0,-0.01799 -0.00847,-0.03704 -0.00741,-0.02011 -0.0254,-0.03598 -0.016933,-0.01693 -0.045508,-0.02752 -0.027517,-0.01058 -0.067733,-0.01058 z m 0.3069166,0.744008 q -0.055033,0.05609 -0.1068917,0.09631 -0.051858,0.04022 -0.1068916,0.06667 -0.053975,0.02646 -0.1132417,0.0381 -0.059267,0.0127 -0.1291166,0.0127 -0.092075,0 -0.1672167,-0.03069 -0.074083,-0.03175 -0.1259417,-0.0889 -0.051858,-0.05715 -0.080433,-0.137584 -0.027517,-0.08149 -0.027517,-0.182033 0,-0.08361 0.016933,-0.1651 0.017992,-0.08255 0.051858,-0.155575 0.033867,-0.07408 0.08255,-0.137583 0.048683,-0.0635 0.111125,-0.109009 0.062442,-0.04657 0.1375833,-0.07197 0.075142,-0.02646 0.161925,-0.02646 0.08255,0 0.142875,0.02328 0.060325,0.02328 0.099483,0.06033 0.040217,0.03598 0.059267,0.08043 0.01905,0.04445 0.01905,0.08678 0,0.06985 -0.028575,0.129117 -0.028575,0.05821 -0.104775,0.105833 -0.075142,0.04657 -0.2074333,0.08149 -0.1322917,0.03493 -0.339725,0.05609 -0.00106,0.0095 -0.00106,0.01905 0,0.0095 0,0.01905 0,0.138641 0.059267,0.20955 0.060325,0.07091 0.180975,0.07091 0.049742,0 0.0889,-0.0095 0.039158,-0.01058 0.068792,-0.0254 0.030692,-0.01482 0.053975,-0.03175 0.023283,-0.01799 0.042333,-0.03281 0.020108,-0.01482 0.037042,-0.02434 0.016933,-0.01058 0.034925,-0.01058 0.011642,0 0.020108,0.0063 0.00953,0.0053 0.017992,0.01376 z"
         style="font-style:italic;font-variant:normal;font-weight:500;font-stretch:normal;font-size:2.11666656px;line-height:1.25;font-family:Lato;-inkscape-font-specification:'Lato, Medium Italic';font-variant-ligatures:normal;font-variant-position:normal;font-variant-caps:normal;font-variant-numeric:normal;font-variant-alternates:normal;font-feature-settings:normal;text-indent:0;text-align:start;text-decoration:none;text-decoration-line:none;text-decoration-style:solid;text-decoration-color:#000000;letter-spacing:0px;word-spacing:0px;text-transform:none;writing-mode:lr-tb;direction:ltr;text-orientation:mixed;dominant-baseline:auto;text-anchor:start;white-space:normal;shape-padding:0;vector-effect:none;fill:#ffd700;fill-opacity:1;stroke:none;stroke-width:0.26458332;stroke-linecap:butt;stroke-linejoin:miter;stroke-miterlimit:4;stroke-dasharray:none;stroke-dashoffset:0;stroke-opacity:1"
         id="path5821"
         inkscape:connector-curvature="0" />
      <path
         d="m 8.2385288,99.011324 q 0,-0.0063 0,-0.01588 0,-0.01058 0.00106,-0.02963 0.00212,-0.01905 0.00529,-0.0508 0.00423,-0.03175 0.010583,-0.08149 l 0.064558,-0.522816 H 8.2046621 q -0.015875,0 -0.026458,-0.01058 -0.00953,-0.01164 -0.00635,-0.03387 l 0.00953,-0.08361 0.1640416,-0.02434 0.08255,-0.320675 q 0.00529,-0.01799 0.016933,-0.02752 0.0127,-0.01058 0.030692,-0.01058 h 0.1100667 l -0.045508,0.360891 h 0.276225 l -0.016933,0.150284 H 8.5221621 l -0.0635,0.512233 q -0.00529,0.04339 -0.00847,0.06985 -0.00318,0.02646 -0.00529,0.04233 -0.00106,0.01482 -0.00212,0.02117 0,0.0064 0,0.0095 0,0.04974 0.024342,0.07514 0.024342,0.0254 0.064558,0.0254 0.026458,0 0.045508,-0.0074 0.020108,-0.0074 0.034925,-0.01587 0.014817,-0.0095 0.024342,-0.01693 0.010583,-0.0074 0.01905,-0.0074 0.00953,0 0.014817,0.0053 0.00529,0.0042 0.010583,0.01482 l 0.043392,0.09948 q -0.053975,0.04657 -0.12065,0.07197 -0.066675,0.0254 -0.1344083,0.0254 -0.1058333,0 -0.1672166,-0.05715 -0.061383,-0.05821 -0.0635,-0.167217 z"
         style="font-style:italic;font-variant:normal;font-weight:500;font-stretch:normal;font-size:2.11666656px;line-height:1.25;font-family:Lato;-inkscape-font-specification:'Lato, Medium Italic';font-variant-ligatures:normal;font-variant-position:normal;font-variant-caps:normal;font-variant-numeric:normal;font-variant-alternates:normal;font-feature-settings:normal;text-indent:0;text-align:start;text-decoration:none;text-decoration-line:none;text-decoration-style:solid;text-decoration-color:#000000;letter-spacing:0px;word-spacing:0px;text-transform:none;writing-mode:lr-tb;direction:ltr;text-orientation:mixed;dominant-baseline:auto;text-anchor:start;white-space:normal;shape-padding:0;vector-effect:none;fill:#ffd700;fill-opacity:1;stroke:none;stroke-width:0.26458332;stroke-linecap:butt;stroke-linejoin:miter;stroke-miterlimit:4;stroke-dasharray:none;stroke-dashoffset:0;stroke-opacity:1"
         id="path5823"
         inkscape:connector-curvature="0" />
      <path
         d="m 9.6952251,99.026141 q -0.053975,0.06033 -0.1037166,0.100542 -0.049742,0.04022 -0.1005417,0.06456 -0.049742,0.02328 -0.1037166,0.03281 -0.052917,0.0095 -0.1164167,0.0095 -0.093133,0 -0.1661583,-0.03175 -0.071967,-0.03175 -0.1217084,-0.08996 -0.048683,-0.05821 -0.074083,-0.1397 -0.0254,-0.08149 -0.0254,-0.180975 0,-0.08678 0.017992,-0.169333 0.01905,-0.08361 0.053975,-0.156634 0.034925,-0.07408 0.084667,-0.135466 0.049742,-0.06244 0.111125,-0.106892 0.061383,-0.04551 0.13335,-0.06985 0.073025,-0.0254 0.1545167,-0.0254 0.1068917,0 0.1788583,0.0381 0.073025,0.0381 0.1280583,0.111125 l -0.064558,0.07832 q -0.00847,0.0085 -0.01905,0.01482 -0.00953,0.0063 -0.021167,0.0063 -0.014817,0 -0.029633,-0.0127 -0.014817,-0.0127 -0.037042,-0.02752 -0.022225,-0.01587 -0.056092,-0.02857 -0.032808,-0.0127 -0.084667,-0.0127 -0.06985,0 -0.1322916,0.0381 -0.062442,0.03704 -0.1090084,0.103716 -0.046567,0.06668 -0.074083,0.157692 -0.027517,0.09102 -0.027517,0.197908 0,0.0635 0.014817,0.115359 0.014817,0.05186 0.042333,0.08784 0.028575,0.03598 0.06985,0.05609 0.042333,0.01905 0.096308,0.01905 0.045508,0 0.080433,-0.0095 0.035983,-0.0095 0.062442,-0.02328 0.027517,-0.01376 0.048683,-0.03069 0.021167,-0.01693 0.0381,-0.03069 0.016933,-0.01376 0.03175,-0.02328 0.014817,-0.0095 0.029633,-0.0095 0.021167,0 0.0381,0.01905 l 0.051858,0.0635 z"
         style="font-style:italic;font-variant:normal;font-weight:500;font-stretch:normal;font-size:2.11666656px;line-height:1.25;font-family:Lato;-inkscape-font-specification:'Lato, Medium Italic';font-variant-ligatures:normal;font-variant-position:normal;font-variant-caps:normal;font-variant-numeric:normal;font-variant-alternates:normal;font-feature-settings:normal;text-indent:0;text-align:start;text-decoration:none;text-decoration-line:none;text-decoration-style:solid;text-decoration-color:#000000;letter-spacing:0px;word-spacing:0px;text-transform:none;writing-mode:lr-tb;direction:ltr;text-orientation:mixed;dominant-baseline:auto;text-anchor:start;white-space:normal;shape-padding:0;vector-effect:none;fill:#ffd700;fill-opacity:1;stroke:none;stroke-width:0.26458332;stroke-linecap:butt;stroke-linejoin:miter;stroke-miterlimit:4;stroke-dasharray:none;stroke-dashoffset:0;stroke-opacity:1"
         id="path5825"
         inkscape:connector-curvature="0" />
      <path
         d="m 10.15269,98.366799 q 0.08255,-0.118533 0.182033,-0.178858 0.09948,-0.06032 0.2032,-0.06032 0.06879,0 0.12065,0.02752 0.05292,0.02646 0.08573,0.07832 0.03281,0.05186 0.04445,0.128059 0.0127,0.07514 0.0011,0.172508 l -0.08043,0.684742 h -0.206375 l 0.08043,-0.684742 q 0.01482,-0.121708 -0.01482,-0.178858 -0.02858,-0.05715 -0.10795,-0.05715 -0.04657,0 -0.09525,0.0254 -0.04763,0.0254 -0.09419,0.07197 -0.04551,0.04551 -0.08573,0.112184 -0.03916,0.06562 -0.06773,0.14605 l -0.06879,0.56515 H 9.8425981 l 0.1894419,-1.5621 h 0.206375 z"
         style="font-style:italic;font-variant:normal;font-weight:500;font-stretch:normal;font-size:2.11666656px;line-height:1.25;font-family:Lato;-inkscape-font-specification:'Lato, Medium Italic';font-variant-ligatures:normal;font-variant-position:normal;font-variant-caps:normal;font-variant-numeric:normal;font-variant-alternates:normal;font-feature-settings:normal;text-indent:0;text-align:start;text-decoration:none;text-decoration-line:none;text-decoration-style:solid;text-decoration-color:#000000;letter-spacing:0px;word-spacing:0px;text-transform:none;writing-mode:lr-tb;direction:ltr;text-orientation:mixed;dominant-baseline:auto;text-anchor:start;white-space:normal;shape-padding:0;vector-effect:none;fill:#ffd700;fill-opacity:1;stroke:none;stroke-width:0.26458332;stroke-linecap:butt;stroke-linejoin:miter;stroke-miterlimit:4;stroke-dasharray:none;stroke-dashoffset:0;stroke-opacity:1"
         id="path5827"
         inkscape:connector-curvature="0" />
      <path
         d="m 11.521545,98.275783 q -0.0635,0 -0.116417,0.02646 -0.05292,0.0254 -0.09525,0.07197 -0.04233,0.04551 -0.07197,0.10795 -0.02963,0.06138 -0.04657,0.134408 0.155575,-0.02011 0.248708,-0.04445 0.09419,-0.02434 0.144992,-0.05292 0.0508,-0.02963 0.06668,-0.06244 0.01693,-0.03281 0.01693,-0.06985 0,-0.01799 -0.0085,-0.03704 -0.0074,-0.02011 -0.0254,-0.03598 -0.01693,-0.01693 -0.04551,-0.02752 -0.02752,-0.01058 -0.06773,-0.01058 z m 0.306916,0.744008 q -0.05503,0.05609 -0.106891,0.09631 -0.05186,0.04022 -0.106892,0.06667 -0.05397,0.02646 -0.113241,0.0381 -0.05927,0.0127 -0.129117,0.0127 -0.09207,0 -0.167217,-0.03069 -0.07408,-0.03175 -0.125941,-0.0889 -0.05186,-0.05715 -0.08043,-0.137584 -0.02752,-0.08149 -0.02752,-0.182033 0,-0.08361 0.01693,-0.1651 0.01799,-0.08255 0.05186,-0.155575 0.03387,-0.07408 0.08255,-0.137583 0.04868,-0.0635 0.111125,-0.109009 0.06244,-0.04657 0.137584,-0.07197 0.07514,-0.02646 0.161925,-0.02646 0.08255,0 0.142875,0.02328 0.06033,0.02328 0.09948,0.06033 0.04022,0.03598 0.05927,0.08043 0.01905,0.04445 0.01905,0.08678 0,0.06985 -0.02858,0.129117 -0.02858,0.05821 -0.104774,0.105833 -0.07514,0.04657 -0.207434,0.08149 -0.132291,0.03493 -0.339725,0.05609 -0.0011,0.0095 -0.0011,0.01905 0,0.0095 0,0.01905 0,0.138641 0.05927,0.20955 0.06032,0.07091 0.180975,0.07091 0.04974,0 0.0889,-0.0095 0.03916,-0.01058 0.06879,-0.0254 0.03069,-0.01482 0.05397,-0.03175 0.02328,-0.01799 0.04233,-0.03281 0.02011,-0.01482 0.03704,-0.02434 0.01693,-0.01058 0.03492,-0.01058 0.01164,0 0.02011,0.0063 0.0095,0.0053 0.01799,0.01376 z"
         style="font-style:italic;font-variant:normal;font-weight:500;font-stretch:normal;font-size:2.11666656px;line-height:1.25;font-family:Lato;-inkscape-font-specification:'Lato, Medium Italic';font-variant-ligatures:normal;font-variant-position:normal;font-variant-caps:normal;font-variant-numeric:normal;font-variant-alternates:normal;font-feature-settings:normal;text-indent:0;text-align:start;text-decoration:none;text-decoration-line:none;text-decoration-style:solid;text-decoration-color:#000000;letter-spacing:0px;word-spacing:0px;text-transform:none;writing-mode:lr-tb;direction:ltr;text-orientation:mixed;dominant-baseline:auto;text-anchor:start;white-space:normal;shape-padding:0;vector-effect:none;fill:#ffd700;fill-opacity:1;stroke:none;stroke-width:0.26458332;stroke-linecap:butt;stroke-linejoin:miter;stroke-miterlimit:4;stroke-dasharray:none;stroke-dashoffset:0;stroke-opacity:1"
         id="path5829"
         inkscape:connector-curvature="0" />
      <path
         d="m 12.27607,98.433474 q 0.04233,-0.08784 0.09102,-0.151341 0.04868,-0.06456 0.1016,-0.100542 0.05292,-0.03704 0.109008,-0.04445 0.05715,-0.0085 0.1143,0.01693 l -0.03704,0.198967 q -0.136525,-0.05503 -0.239184,0.03704 -0.102658,0.09207 -0.166158,0.340783 l -0.05927,0.487892 h -0.202141 l 0.130175,-1.077384 h 0.103716 q 0.03387,0 0.05186,0.01693 0.01799,0.01693 0.01799,0.05292 z"
         style="font-style:italic;font-variant:normal;font-weight:500;font-stretch:normal;font-size:2.11666656px;line-height:1.25;font-family:Lato;-inkscape-font-specification:'Lato, Medium Italic';font-variant-ligatures:normal;font-variant-position:normal;font-variant-caps:normal;font-variant-numeric:normal;font-variant-alternates:normal;font-feature-settings:normal;text-indent:0;text-align:start;text-decoration:none;text-decoration-line:none;text-decoration-style:solid;text-decoration-color:#000000;letter-spacing:0px;word-spacing:0px;text-transform:none;writing-mode:lr-tb;direction:ltr;text-orientation:mixed;dominant-baseline:auto;text-anchor:start;white-space:normal;shape-padding:0;vector-effect:none;fill:#ffd700;fill-opacity:1;stroke:none;stroke-width:0.26458332;stroke-linecap:butt;stroke-linejoin:miter;stroke-miterlimit:4;stroke-dasharray:none;stroke-dashoffset:0;stroke-opacity:1"
         id="path5831"
         inkscape:connector-curvature="0" />
    </g>
    <path
       style="font-style:normal;font-variant:normal;font-weight:500;font-stretch:normal;font-size:medium;line-height:1.25;font-family:Lato;-inkscape-font-specification:'Lato, Medium';font-variant-ligatures:normal;font-variant-caps:normal;font-variant-numeric:normal;font-feature-settings:normal;text-align:start;letter-spacing:0px;word-spacing:0px;writing-mode:lr-tb;text-anchor:start;fill:#ffffff;fill-opacity:1;stroke:none;stroke-width:0.26458332"
       inkscape:connector-curvature="0"
       id="path925"
       d="m 3.0056665,10.367433 q -0.021167,0.03598 -0.04445,0.05292 -0.023283,0.01693 -0.059267,0.01693 -0.0381,0 -0.086783,-0.03387 -0.048683,-0.03598 -0.1227667,-0.07832 -0.071967,-0.04445 -0.1735666,-0.07832 -0.1016,-0.03598 -0.2434167,-0.03598 -0.13335,0 -0.23495,0.03598 -0.099483,0.03387 -0.1672166,0.09525 -0.067733,0.05927 -0.1037167,0.141817 -0.033867,0.08043 -0.033867,0.175683 0,0.122767 0.061383,0.2032 0.0635,0.08043 0.1651,0.137583 0.1016,0.05715 0.2307166,0.09948 0.1291167,0.04233 0.2645833,0.0889 0.1354667,0.04445 0.2645834,0.103717 0.1291166,0.05927 0.2307166,0.150283 0.1016,0.0889 0.1629833,0.220134 0.0635,0.129116 0.0635,0.3175 0,0.201083 -0.06985,0.376766 -0.067733,0.175684 -0.1989666,0.306917 -0.1312334,0.131233 -0.32385,0.207433 -0.1905,0.07408 -0.4339167,0.07408 -0.1460499,0 -0.2836333,-0.02963 -0.1375826,-0.02752 -0.2603493,-0.07831 -0.1227666,-0.05292 -0.2307166,-0.124883 -0.1058333,-0.07408 -0.1905,-0.1651 l 0.1291167,-0.2159 q 0.01905,-0.0254 0.04445,-0.04233 0.027517,-0.01693 0.061383,-0.01693 0.04445,0 0.1016,0.04657 0.059267,0.04657 0.1439333,0.103716 0.086783,0.05503 0.2053167,0.1016 0.12065,0.04657 0.2920999,0.04657 0.1397,0 0.2497667,-0.03598 0.1100667,-0.0381 0.18415,-0.105833 0.0762,-0.06985 0.1164167,-0.167217 0.040217,-0.09737 0.040217,-0.2159 0,-0.13335 -0.061383,-0.218016 -0.061384,-0.08467 -0.162984,-0.141819 -0.1016,-0.05715 -0.2307167,-0.09737 Q 2.1716998,11.548533 2.0362332,11.5062 1.9007665,11.46175 1.7716499,11.4046 1.6425332,11.34745 1.5409332,11.256433 1.4393333,11.1633 1.3779499,11.025716 q -0.061383,-0.1397 -0.061383,-0.3429 0,-0.162983 0.0635,-0.315383 0.0635,-0.1524 0.1841499,-0.268817 0.1227667,-0.118533 0.3005667,-0.188383 0.1778,-0.071967 0.4064,-0.071967 0.2561166,0 0.4699,0.08255 0.2158999,0.080433 0.3746499,0.232833 z" />
  </g>
</svg>
