<?xml version="1.0" encoding="UTF-8" standalone="no"?>
<!-- Created with Inkscape (http://www.inkscape.org/) -->

<svg
   xmlns:dc="http://purl.org/dc/elements/1.1/"
   xmlns:cc="http://creativecommons.org/ns#"
   xmlns:rdf="http://www.w3.org/1999/02/22-rdf-syntax-ns#"
   xmlns:svg="http://www.w3.org/2000/svg"
   xmlns="http://www.w3.org/2000/svg"
   xmlns:sodipodi="http://sodipodi.sourceforge.net/DTD/sodipodi-0.dtd"
   xmlns:inkscape="http://www.inkscape.org/namespaces/inkscape"
   width="45"
   height="380"
   viewBox="0 0 11.90625 100.54167"
   version="1.1"
   id="svg8"
   inkscape:version="0.92.2 5c3e80d, 2017-08-06"
   sodipodi:docname="panel3.svg">
  <defs
     id="defs2" />
  <sodipodi:namedview
     id="base"
     pagecolor="#ffffff"
     bordercolor="#666666"
     borderopacity="1.0"
     inkscape:pageopacity="0.0"
     inkscape:pageshadow="2"
     inkscape:zoom="2.5394737"
     inkscape:cx="-58.134715"
     inkscape:cy="16.735752"
     inkscape:document-units="px"
     inkscape:current-layer="layer7"
     showgrid="true"
     units="px"
     inkscape:window-width="1920"
     inkscape:window-height="1178"
     inkscape:window-x="0"
     inkscape:window-y="0"
     inkscape:window-maximized="1"
     showguides="true"
     inkscape:guide-bbox="true">
    <inkscape:grid
       type="xygrid"
       id="grid10" />
    <sodipodi:guide
       position="0,64.822919"
       orientation="1,0"
       id="guide900"
       inkscape:locked="false" />
    <sodipodi:guide
       position="-22.489583,0"
       orientation="0,1"
       id="guide902"
       inkscape:locked="false" />
    <sodipodi:guide
       position="3.9687499,18.520834"
       orientation="1,0"
       id="guide904"
       inkscape:locked="false" />
    <sodipodi:guide
       position="7.9374997,7.9375003"
       orientation="1,0"
       id="guide906"
       inkscape:locked="false" />
    <sodipodi:guide
       position="11.90625,0"
       orientation="1,0"
       id="guide908"
       inkscape:locked="false" />
    <sodipodi:guide
       position="15.874999,3.9687501"
       orientation="1,0"
       id="guide910"
       inkscape:locked="false" />
    <sodipodi:guide
       position="19.843749,5.2916668"
       orientation="1,0"
       id="guide912"
       inkscape:locked="false" />
    <sodipodi:guide
       position="23.812499,0"
       orientation="1,0"
       id="guide914"
       inkscape:locked="false" />
    <sodipodi:guide
       position="27.781249,2.6458334"
       orientation="1,0"
       id="guide916"
       inkscape:locked="false" />
    <sodipodi:guide
       position="31.749999,13.229167"
       orientation="1,0"
       id="guide918"
       inkscape:locked="false" />
  </sodipodi:namedview>
  <metadata
     id="metadata5">
    <rdf:RDF>
      <cc:Work
         rdf:about="">
        <dc:format>image/svg+xml</dc:format>
        <dc:type
           rdf:resource="http://purl.org/dc/dcmitype/StillImage" />
        <dc:title></dc:title>
      </cc:Work>
    </rdf:RDF>
  </metadata>
  <g
     inkscape:label="Base"
     inkscape:groupmode="layer"
     id="layer1"
     transform="translate(0,-196.45832)">
    <rect
       style="opacity:1;fill:#001932;fill-opacity:1;stroke:#cd8f50;stroke-width:0.16186589;stroke-miterlimit:4;stroke-dasharray:none;stroke-opacity:1"
       id="rect12"
       width="11.887522"
       height="100.5042"
       x="0.018728258"
       y="196.47704" />
  </g>
  <g
     inkscape:groupmode="layer"
     id="layer2"
     inkscape:label="Frame">
    <rect
       style="opacity:1;fill:#000009;fill-opacity:0;stroke:#90b0c0;stroke-width:0.5291667;stroke-linejoin:round;stroke-miterlimit:4;stroke-dasharray:none;stroke-opacity:1"
       id="rect831"
       width="11.812203"
       height="100.35355"
       x="0.094046451"
       y="0.094046451" />
  </g>
  <g
     inkscape:groupmode="layer"
     id="layer7"
     inkscape:label="Text">
    <g
       aria-label="bitFetcher"
       style="font-style:italic;font-variant:normal;font-weight:500;font-stretch:normal;font-size:2.11666656px;line-height:1.25;font-family:Lato;-inkscape-font-specification:'Lato, Medium Italic';font-variant-ligatures:normal;font-variant-position:normal;font-variant-caps:normal;font-variant-numeric:normal;font-variant-alternates:normal;font-feature-settings:normal;text-indent:0;text-align:start;text-decoration:none;text-decoration-line:none;text-decoration-style:solid;text-decoration-color:#000000;letter-spacing:0px;word-spacing:0px;text-transform:none;writing-mode:lr-tb;direction:ltr;text-orientation:mixed;dominant-baseline:auto;baseline-shift:baseline;text-anchor:start;white-space:normal;shape-padding:0;opacity:1;vector-effect:none;fill:#ffd700;fill-opacity:1;stroke:none;stroke-width:0.26458332;stroke-linecap:butt;stroke-linejoin:miter;stroke-miterlimit:4;stroke-dasharray:none;stroke-dashoffset:0;stroke-opacity:1"
       id="text1520">
      <path
         d="m 2.1388915,99.244146 q 0.040217,0.05186 0.093133,0.07303 0.053975,0.02117 0.1090083,0.02117 0.052917,0 0.099483,-0.02222 0.046567,-0.02223 0.085725,-0.06033 0.039158,-0.03916 0.068792,-0.09102 0.030692,-0.05186 0.051858,-0.110066 0.021167,-0.05927 0.03175,-0.122767 0.011642,-0.0635 0.011642,-0.125942 0,-0.122766 -0.043392,-0.185208 -0.042333,-0.0635 -0.1217083,-0.0635 -0.048683,0 -0.099483,0.03175 -0.049742,0.03069 -0.096308,0.08678 -0.046567,0.05503 -0.087842,0.131234 -0.040217,0.07514 -0.068792,0.164041 z m 0.070908,-0.579966 q 0.039158,-0.06244 0.084667,-0.112184 0.045508,-0.0508 0.09525,-0.08572 0.0508,-0.03598 0.1037167,-0.05503 0.053975,-0.01905 0.1100666,-0.01905 0.136525,0 0.2137834,0.09948 0.078317,0.09948 0.078317,0.294217 0,0.08784 -0.01905,0.175683 -0.017992,0.08678 -0.051858,0.166159 -0.032808,0.07937 -0.080433,0.147108 -0.047625,0.06773 -0.1058334,0.117475 -0.058208,0.04974 -0.1259416,0.07832 -0.066675,0.02752 -0.1407584,0.02752 -0.084667,0 -0.1534583,-0.03493 -0.067733,-0.03598 -0.1121833,-0.09948 l -0.013758,0.06033 q -0.00847,0.03069 -0.023283,0.04551 -0.014817,0.01376 -0.048683,0.01376 h -0.111125 l 0.1894417,-1.5621 h 0.2021416 z"
         style="font-style:italic;font-variant:normal;font-weight:500;font-stretch:normal;font-size:2.11666656px;line-height:1.25;font-family:Lato;-inkscape-font-specification:'Lato, Medium Italic';font-variant-ligatures:normal;font-variant-position:normal;font-variant-caps:normal;font-variant-numeric:normal;font-variant-alternates:normal;font-feature-settings:normal;text-indent:0;text-align:start;text-decoration:none;text-decoration-line:none;text-decoration-style:solid;text-decoration-color:#000000;letter-spacing:0px;word-spacing:0px;text-transform:none;writing-mode:lr-tb;direction:ltr;text-orientation:mixed;dominant-baseline:auto;text-anchor:start;white-space:normal;shape-padding:0;vector-effect:none;fill:#ffd700;fill-opacity:1;stroke:none;stroke-width:0.26458332;stroke-linecap:butt;stroke-linejoin:miter;stroke-miterlimit:4;stroke-dasharray:none;stroke-dashoffset:0;stroke-opacity:1"
         id="path5702"
         inkscape:connector-curvature="0" />
      <path
         d="m 3.3776706,98.408063 -0.130175,1.075267 h -0.2032 l 0.1291167,-1.075267 z m 0.06985,-0.332316 q 0,0.02857 -0.0127,0.05503 -0.011642,0.0254 -0.03175,0.04551 -0.01905,0.01905 -0.04445,0.03069 -0.0254,0.01058 -0.051858,0.01058 -0.026458,0 -0.0508,-0.01058 -0.024342,-0.01164 -0.043392,-0.03069 -0.017992,-0.02011 -0.029633,-0.04551 -0.010583,-0.02646 -0.010583,-0.05503 0,-0.02858 0.010583,-0.05398 0.011642,-0.02646 0.030692,-0.04551 0.01905,-0.02011 0.043392,-0.03175 0.0254,-0.01164 0.051858,-0.01164 0.026458,0 0.051858,0.01164 0.0254,0.01058 0.04445,0.03069 0.01905,0.01905 0.030692,0.04551 0.011642,0.0254 0.011642,0.05503 z"
         style="font-style:italic;font-variant:normal;font-weight:500;font-stretch:normal;font-size:2.11666656px;line-height:1.25;font-family:Lato;-inkscape-font-specification:'Lato, Medium Italic';font-variant-ligatures:normal;font-variant-position:normal;font-variant-caps:normal;font-variant-numeric:normal;font-variant-alternates:normal;font-feature-settings:normal;text-indent:0;text-align:start;text-decoration:none;text-decoration-line:none;text-decoration-style:solid;text-decoration-color:#000000;letter-spacing:0px;word-spacing:0px;text-transform:none;writing-mode:lr-tb;direction:ltr;text-orientation:mixed;dominant-baseline:auto;text-anchor:start;white-space:normal;shape-padding:0;vector-effect:none;fill:#ffd700;fill-opacity:1;stroke:none;stroke-width:0.26458332;stroke-linecap:butt;stroke-linejoin:miter;stroke-miterlimit:4;stroke-dasharray:none;stroke-dashoffset:0;stroke-opacity:1"
         id="path5704"
         inkscape:connector-curvature="0" />
      <path
         d="m 3.6165893,99.275896 q 0,-0.0063 0,-0.01588 0,-0.01058 0.00106,-0.02963 0.00212,-0.01905 0.00529,-0.0508 0.00423,-0.03175 0.010583,-0.08149 L 3.698081,98.57528 H 3.5827227 q -0.015875,0 -0.026458,-0.01058 -0.00953,-0.01164 -0.00635,-0.03387 l 0.00953,-0.08361 0.1640417,-0.02434 0.08255,-0.320675 q 0.00529,-0.01799 0.016933,-0.02752 0.0127,-0.01058 0.030692,-0.01058 h 0.1100667 l -0.045508,0.360891 h 0.276225 L 4.177506,98.57528 H 3.9002227 l -0.0635,0.512233 q -0.00529,0.04339 -0.00847,0.06985 -0.00318,0.02646 -0.00529,0.04233 -0.00106,0.01482 -0.00212,0.02117 0,0.0064 0,0.0095 0,0.04974 0.024342,0.07514 0.024342,0.0254 0.064558,0.0254 0.026458,0 0.045508,-0.0074 0.020108,-0.0074 0.034925,-0.01587 0.014817,-0.0095 0.024342,-0.01693 0.010583,-0.0074 0.01905,-0.0074 0.00953,0 0.014817,0.0053 0.00529,0.0042 0.010583,0.01482 l 0.043392,0.09948 q -0.053975,0.04657 -0.12065,0.07197 -0.066675,0.0254 -0.1344083,0.0254 -0.1058333,0 -0.1672167,-0.05715 -0.061383,-0.05821 -0.0635,-0.167217 z"
         style="font-style:italic;font-variant:normal;font-weight:500;font-stretch:normal;font-size:2.11666656px;line-height:1.25;font-family:Lato;-inkscape-font-specification:'Lato, Medium Italic';font-variant-ligatures:normal;font-variant-position:normal;font-variant-caps:normal;font-variant-numeric:normal;font-variant-alternates:normal;font-feature-settings:normal;text-indent:0;text-align:start;text-decoration:none;text-decoration-line:none;text-decoration-style:solid;text-decoration-color:#000000;letter-spacing:0px;word-spacing:0px;text-transform:none;writing-mode:lr-tb;direction:ltr;text-orientation:mixed;dominant-baseline:auto;text-anchor:start;white-space:normal;shape-padding:0;vector-effect:none;fill:#ffd700;fill-opacity:1;stroke:none;stroke-width:0.26458332;stroke-linecap:butt;stroke-linejoin:miter;stroke-miterlimit:4;stroke-dasharray:none;stroke-dashoffset:0;stroke-opacity:1"
         id="path5706"
         inkscape:connector-curvature="0" />
      <path
         d="m 4.685936,98.140305 -0.0635,0.519641 H 5.178061 L 5.154778,98.836688 H 4.600211 L 4.520836,99.48333 H 4.3028193 L 4.489086,97.963563 h 0.8710083 l -0.022225,0.176742 z"
         style="font-style:italic;font-variant:normal;font-weight:500;font-stretch:normal;font-size:2.11666656px;line-height:1.25;font-family:Lato;-inkscape-font-specification:'Lato, Medium Italic';font-variant-ligatures:normal;font-variant-position:normal;font-variant-caps:normal;font-variant-numeric:normal;font-variant-alternates:normal;font-feature-settings:normal;text-indent:0;text-align:start;text-decoration:none;text-decoration-line:none;text-decoration-style:solid;text-decoration-color:#000000;letter-spacing:0px;word-spacing:0px;text-transform:none;writing-mode:lr-tb;direction:ltr;text-orientation:mixed;dominant-baseline:auto;text-anchor:start;white-space:normal;shape-padding:0;vector-effect:none;fill:#ffd700;fill-opacity:1;stroke:none;stroke-width:0.26458332;stroke-linecap:butt;stroke-linejoin:miter;stroke-miterlimit:4;stroke-dasharray:none;stroke-dashoffset:0;stroke-opacity:1"
         id="path5708"
         inkscape:connector-curvature="0" />
      <path
         d="m 5.841272,98.540355 q -0.0635,0 -0.1164166,0.02646 -0.052917,0.0254 -0.09525,0.07197 -0.042333,0.04551 -0.071967,0.10795 -0.029633,0.06138 -0.046567,0.134408 0.155575,-0.02011 0.2487084,-0.04445 0.094192,-0.02434 0.1449916,-0.05292 0.0508,-0.02963 0.066675,-0.06244 0.016933,-0.03281 0.016933,-0.06985 0,-0.01799 -0.00847,-0.03704 -0.00741,-0.02011 -0.0254,-0.03598 -0.016933,-0.01693 -0.045508,-0.02752 -0.027517,-0.01058 -0.067733,-0.01058 z m 0.3069167,0.744008 q -0.055033,0.05609 -0.1068917,0.09631 -0.051858,0.04022 -0.1068916,0.06667 -0.053975,0.02646 -0.1132417,0.0381 -0.059267,0.0127 -0.1291167,0.0127 -0.092075,0 -0.1672166,-0.03069 -0.074083,-0.03175 -0.1259417,-0.0889 -0.051858,-0.05715 -0.080433,-0.137584 -0.027517,-0.08149 -0.027517,-0.182033 0,-0.08361 0.016933,-0.1651 0.017992,-0.08255 0.051858,-0.155575 0.033867,-0.07408 0.08255,-0.137583 0.048683,-0.0635 0.111125,-0.109009 0.062442,-0.04657 0.1375833,-0.07197 0.075142,-0.02646 0.161925,-0.02646 0.08255,0 0.142875,0.02328 0.060325,0.02328 0.099483,0.06033 0.040217,0.03598 0.059267,0.08043 0.01905,0.04445 0.01905,0.08678 0,0.06985 -0.028575,0.129117 -0.028575,0.05821 -0.104775,0.105833 -0.075142,0.04657 -0.2074333,0.08149 -0.1322917,0.03492 -0.339725,0.05609 -0.00106,0.0095 -0.00106,0.01905 0,0.0095 0,0.01905 0,0.138641 0.059267,0.20955 0.060325,0.07091 0.180975,0.07091 0.049742,0 0.0889,-0.0095 0.039158,-0.01058 0.068792,-0.0254 0.030692,-0.01482 0.053975,-0.03175 0.023283,-0.01799 0.042333,-0.03281 0.020108,-0.01482 0.037042,-0.02434 0.016933,-0.01058 0.034925,-0.01058 0.011642,0 0.020108,0.0063 0.00953,0.0053 0.017992,0.01376 z"
         style="font-style:italic;font-variant:normal;font-weight:500;font-stretch:normal;font-size:2.11666656px;line-height:1.25;font-family:Lato;-inkscape-font-specification:'Lato, Medium Italic';font-variant-ligatures:normal;font-variant-position:normal;font-variant-caps:normal;font-variant-numeric:normal;font-variant-alternates:normal;font-feature-settings:normal;text-indent:0;text-align:start;text-decoration:none;text-decoration-line:none;text-decoration-style:solid;text-decoration-color:#000000;letter-spacing:0px;word-spacing:0px;text-transform:none;writing-mode:lr-tb;direction:ltr;text-orientation:mixed;dominant-baseline:auto;text-anchor:start;white-space:normal;shape-padding:0;vector-effect:none;fill:#ffd700;fill-opacity:1;stroke:none;stroke-width:0.26458332;stroke-linecap:butt;stroke-linejoin:miter;stroke-miterlimit:4;stroke-dasharray:none;stroke-dashoffset:0;stroke-opacity:1"
         id="path5710"
         inkscape:connector-curvature="0" />
      <path
         d="m 6.386446,99.275896 q 0,-0.0063 0,-0.01588 0,-0.01058 0.00106,-0.02963 0.00212,-0.01905 0.00529,-0.0508 0.00423,-0.03175 0.010583,-0.08149 L 6.4679377,98.57528 H 6.3525794 q -0.015875,0 -0.026458,-0.01058 -0.00953,-0.01164 -0.00635,-0.03387 l 0.00953,-0.08361 0.1640417,-0.02434 0.08255,-0.320675 q 0.00529,-0.01799 0.016933,-0.02752 0.0127,-0.01058 0.030692,-0.01058 H 6.7335793 L 6.688071,98.424996 H 6.964296 L 6.9473627,98.57528 H 6.6700793 l -0.0635,0.512233 q -0.00529,0.04339 -0.00847,0.06985 -0.00317,0.02646 -0.00529,0.04233 -0.00106,0.01482 -0.00212,0.02117 0,0.0064 0,0.0095 0,0.04974 0.024342,0.07514 0.024342,0.0254 0.064558,0.0254 0.026458,0 0.045508,-0.0074 0.020108,-0.0074 0.034925,-0.01587 0.014817,-0.0095 0.024342,-0.01693 0.010583,-0.0074 0.01905,-0.0074 0.00953,0 0.014817,0.0053 0.00529,0.0042 0.010583,0.01482 l 0.043392,0.09948 q -0.053975,0.04657 -0.12065,0.07197 -0.066675,0.0254 -0.1344083,0.0254 -0.1058333,0 -0.1672167,-0.05715 -0.061383,-0.05821 -0.0635,-0.167217 z"
         style="font-style:italic;font-variant:normal;font-weight:500;font-stretch:normal;font-size:2.11666656px;line-height:1.25;font-family:Lato;-inkscape-font-specification:'Lato, Medium Italic';font-variant-ligatures:normal;font-variant-position:normal;font-variant-caps:normal;font-variant-numeric:normal;font-variant-alternates:normal;font-feature-settings:normal;text-indent:0;text-align:start;text-decoration:none;text-decoration-line:none;text-decoration-style:solid;text-decoration-color:#000000;letter-spacing:0px;word-spacing:0px;text-transform:none;writing-mode:lr-tb;direction:ltr;text-orientation:mixed;dominant-baseline:auto;text-anchor:start;white-space:normal;shape-padding:0;vector-effect:none;fill:#ffd700;fill-opacity:1;stroke:none;stroke-width:0.26458332;stroke-linecap:butt;stroke-linejoin:miter;stroke-miterlimit:4;stroke-dasharray:none;stroke-dashoffset:0;stroke-opacity:1"
         id="path5712"
         inkscape:connector-curvature="0" />
      <path
         d="m 7.8431424,99.290713 q -0.053975,0.06033 -0.1037166,0.100542 -0.049742,0.04022 -0.1005417,0.06456 -0.049742,0.02328 -0.1037167,0.03281 -0.052917,0.0095 -0.1164166,0.0095 -0.093133,0 -0.1661584,-0.03175 -0.071967,-0.03175 -0.1217083,-0.08996 -0.048683,-0.05821 -0.074083,-0.1397 -0.0254,-0.08149 -0.0254,-0.180975 0,-0.08678 0.017992,-0.169333 0.01905,-0.08361 0.053975,-0.156634 0.034925,-0.07408 0.084667,-0.135466 0.049742,-0.06244 0.111125,-0.106892 0.061383,-0.04551 0.13335,-0.06985 0.073025,-0.0254 0.1545167,-0.0254 0.1068916,0 0.1788583,0.0381 0.073025,0.0381 0.1280583,0.111125 l -0.064558,0.07832 q -0.00847,0.0085 -0.01905,0.01482 -0.00953,0.0063 -0.021167,0.0063 -0.014817,0 -0.029633,-0.0127 -0.014817,-0.0127 -0.037042,-0.02752 -0.022225,-0.01587 -0.056092,-0.02858 -0.032808,-0.0127 -0.084667,-0.0127 -0.06985,0 -0.1322917,0.0381 -0.062442,0.03704 -0.1090083,0.103716 -0.046567,0.06667 -0.074083,0.157692 -0.027517,0.09102 -0.027517,0.197908 0,0.0635 0.014817,0.115359 0.014817,0.05186 0.042333,0.08784 0.028575,0.03598 0.06985,0.05609 0.042333,0.01905 0.096308,0.01905 0.045508,0 0.080433,-0.0095 0.035983,-0.0095 0.062442,-0.02328 0.027517,-0.01376 0.048683,-0.03069 0.021167,-0.01693 0.0381,-0.03069 0.016933,-0.01376 0.03175,-0.02328 0.014817,-0.0095 0.029633,-0.0095 0.021167,0 0.0381,0.01905 l 0.051858,0.0635 z"
         style="font-style:italic;font-variant:normal;font-weight:500;font-stretch:normal;font-size:2.11666656px;line-height:1.25;font-family:Lato;-inkscape-font-specification:'Lato, Medium Italic';font-variant-ligatures:normal;font-variant-position:normal;font-variant-caps:normal;font-variant-numeric:normal;font-variant-alternates:normal;font-feature-settings:normal;text-indent:0;text-align:start;text-decoration:none;text-decoration-line:none;text-decoration-style:solid;text-decoration-color:#000000;letter-spacing:0px;word-spacing:0px;text-transform:none;writing-mode:lr-tb;direction:ltr;text-orientation:mixed;dominant-baseline:auto;text-anchor:start;white-space:normal;shape-padding:0;vector-effect:none;fill:#ffd700;fill-opacity:1;stroke:none;stroke-width:0.26458332;stroke-linecap:butt;stroke-linejoin:miter;stroke-miterlimit:4;stroke-dasharray:none;stroke-dashoffset:0;stroke-opacity:1"
         id="path5714"
         inkscape:connector-curvature="0" />
      <path
         d="m 8.300607,98.631371 q 0.08255,-0.118533 0.1820333,-0.178858 0.099483,-0.06032 0.2032,-0.06032 0.068792,0 0.12065,0.02752 0.052917,0.02646 0.085725,0.07832 0.032808,0.05186 0.04445,0.128059 0.0127,0.07514 0.00106,0.172508 l -0.080433,0.684742 H 8.6509173 L 8.7313503,98.7986 q 0.014815,-0.12172 -0.014818,-0.17887 -0.028575,-0.05715 -0.10795,-0.05715 -0.046567,0 -0.09525,0.0254 -0.047625,0.0254 -0.094192,0.07197 -0.045508,0.04551 -0.085725,0.112184 -0.039158,0.06562 -0.067733,0.14605 L 8.19689,99.483334 H 7.990515 l 0.1894417,-1.5621 h 0.206375 z"
         style="font-style:italic;font-variant:normal;font-weight:500;font-stretch:normal;font-size:2.11666656px;line-height:1.25;font-family:Lato;-inkscape-font-specification:'Lato, Medium Italic';font-variant-ligatures:normal;font-variant-position:normal;font-variant-caps:normal;font-variant-numeric:normal;font-variant-alternates:normal;font-feature-settings:normal;text-indent:0;text-align:start;text-decoration:none;text-decoration-line:none;text-decoration-style:solid;text-decoration-color:#000000;letter-spacing:0px;word-spacing:0px;text-transform:none;writing-mode:lr-tb;direction:ltr;text-orientation:mixed;dominant-baseline:auto;text-anchor:start;white-space:normal;shape-padding:0;vector-effect:none;fill:#ffd700;fill-opacity:1;stroke:none;stroke-width:0.26458332;stroke-linecap:butt;stroke-linejoin:miter;stroke-miterlimit:4;stroke-dasharray:none;stroke-dashoffset:0;stroke-opacity:1"
         id="path5716"
         inkscape:connector-curvature="0" />
      <path
         d="m 9.6694621,98.540355 q -0.0635,0 -0.1164166,0.02646 -0.052917,0.0254 -0.09525,0.07197 -0.042333,0.04551 -0.071967,0.10795 -0.029633,0.06138 -0.046567,0.134408 0.155575,-0.02011 0.2487084,-0.04445 0.094192,-0.02434 0.1449916,-0.05292 0.0508,-0.02963 0.066675,-0.06244 0.016933,-0.03281 0.016933,-0.06985 0,-0.01799 -0.00847,-0.03704 -0.00741,-0.02011 -0.0254,-0.03598 -0.016933,-0.01693 -0.045508,-0.02752 -0.027517,-0.01058 -0.067733,-0.01058 z m 0.3069167,0.744008 q -0.055033,0.05609 -0.1068917,0.09631 -0.051858,0.04022 -0.1068917,0.06667 -0.053975,0.02646 -0.1132416,0.0381 -0.059267,0.0127 -0.1291167,0.0127 -0.092075,0 -0.1672166,-0.03069 -0.074083,-0.03175 -0.1259417,-0.0889 -0.051858,-0.05715 -0.080433,-0.137584 -0.027517,-0.08149 -0.027517,-0.182033 0,-0.08361 0.016933,-0.1651 0.017992,-0.08255 0.051858,-0.155575 0.033867,-0.07408 0.08255,-0.137583 0.048683,-0.0635 0.111125,-0.109009 0.062442,-0.04657 0.1375833,-0.07197 0.075142,-0.02646 0.161925,-0.02646 0.08255,0 0.142875,0.02328 0.060325,0.02328 0.099483,0.06033 0.040217,0.03598 0.059267,0.08043 0.01905,0.04445 0.01905,0.08678 0,0.06985 -0.028575,0.129117 -0.028575,0.05821 -0.104775,0.105833 -0.075142,0.04657 -0.2074333,0.08149 -0.1322917,0.03492 -0.339725,0.05609 -0.00106,0.0095 -0.00106,0.01905 0,0.0095 0,0.01905 0,0.138641 0.059267,0.20955 0.060325,0.07091 0.180975,0.07091 0.049742,0 0.0889,-0.0095 0.039158,-0.01058 0.068792,-0.0254 0.030692,-0.01482 0.053975,-0.03175 0.023283,-0.01799 0.042333,-0.03281 0.020108,-0.01482 0.037042,-0.02434 0.016933,-0.01058 0.034925,-0.01058 0.011642,0 0.020108,0.0063 0.00953,0.0053 0.017992,0.01376 z"
         style="font-style:italic;font-variant:normal;font-weight:500;font-stretch:normal;font-size:2.11666656px;line-height:1.25;font-family:Lato;-inkscape-font-specification:'Lato, Medium Italic';font-variant-ligatures:normal;font-variant-position:normal;font-variant-caps:normal;font-variant-numeric:normal;font-variant-alternates:normal;font-feature-settings:normal;text-indent:0;text-align:start;text-decoration:none;text-decoration-line:none;text-decoration-style:solid;text-decoration-color:#000000;letter-spacing:0px;word-spacing:0px;text-transform:none;writing-mode:lr-tb;direction:ltr;text-orientation:mixed;dominant-baseline:auto;text-anchor:start;white-space:normal;shape-padding:0;vector-effect:none;fill:#ffd700;fill-opacity:1;stroke:none;stroke-width:0.26458332;stroke-linecap:butt;stroke-linejoin:miter;stroke-miterlimit:4;stroke-dasharray:none;stroke-dashoffset:0;stroke-opacity:1"
         id="path5718"
         inkscape:connector-curvature="0" />
      <path
         d="m 10.423988,98.698046 q 0.04233,-0.08784 0.09102,-0.151341 0.04868,-0.06456 0.1016,-0.100542 0.05292,-0.03704 0.109009,-0.04445 0.05715,-0.0085 0.1143,0.01693 l -0.03704,0.198967 q -0.136525,-0.05503 -0.239183,0.03704 -0.102659,0.09207 -0.166159,0.340783 l -0.05927,0.487892 h -0.202142 l 0.130175,-1.077384 h 0.103717 q 0.03387,0 0.05186,0.01693 0.01799,0.01693 0.01799,0.05292 z"
         style="font-style:italic;font-variant:normal;font-weight:500;font-stretch:normal;font-size:2.11666656px;line-height:1.25;font-family:Lato;-inkscape-font-specification:'Lato, Medium Italic';font-variant-ligatures:normal;font-variant-position:normal;font-variant-caps:normal;font-variant-numeric:normal;font-variant-alternates:normal;font-feature-settings:normal;text-indent:0;text-align:start;text-decoration:none;text-decoration-line:none;text-decoration-style:solid;text-decoration-color:#000000;letter-spacing:0px;word-spacing:0px;text-transform:none;writing-mode:lr-tb;direction:ltr;text-orientation:mixed;dominant-baseline:auto;text-anchor:start;white-space:normal;shape-padding:0;vector-effect:none;fill:#ffd700;fill-opacity:1;stroke:none;stroke-width:0.26458332;stroke-linecap:butt;stroke-linejoin:miter;stroke-miterlimit:4;stroke-dasharray:none;stroke-dashoffset:0;stroke-opacity:1"
         id="path5720"
         inkscape:connector-curvature="0" />
    </g>
  </g>
</svg>
