<?xml version="1.0" encoding="UTF-8" standalone="no"?>
<!-- Created with Inkscape (http://www.inkscape.org/) -->

<svg
   xmlns:dc="http://purl.org/dc/elements/1.1/"
   xmlns:cc="http://creativecommons.org/ns#"
   xmlns:rdf="http://www.w3.org/1999/02/22-rdf-syntax-ns#"
   xmlns:svg="http://www.w3.org/2000/svg"
   xmlns="http://www.w3.org/2000/svg"
   xmlns:sodipodi="http://sodipodi.sourceforge.net/DTD/sodipodi-0.dtd"
   xmlns:inkscape="http://www.inkscape.org/namespaces/inkscape"
   width="105"
   height="380"
   viewBox="0 0 27.781249 100.54167"
   version="1.1"
   id="svg8"
   inkscape:version="0.92.2 5c3e80d, 2017-08-06"
   sodipodi:docname="panel7.svg">
  <defs
     id="defs2" />
  <sodipodi:namedview
     id="base"
     pagecolor="#ffffff"
     bordercolor="#666666"
     borderopacity="1.0"
     inkscape:pageopacity="0.0"
     inkscape:pageshadow="2"
     inkscape:zoom="2.5394737"
     inkscape:cx="-23.481866"
     inkscape:cy="126.99482"
     inkscape:document-units="px"
     inkscape:current-layer="layer4"
     showgrid="true"
     units="px"
     inkscape:window-width="1815"
     inkscape:window-height="1149"
     inkscape:window-x="0"
     inkscape:window-y="0"
     inkscape:window-maximized="0"
     showguides="true"
     inkscape:guide-bbox="true">
    <inkscape:grid
       type="xygrid"
       id="grid10" />
    <sodipodi:guide
       position="0,64.822919"
       orientation="1,0"
       id="guide900"
       inkscape:locked="false" />
    <sodipodi:guide
       position="-22.489583,0"
       orientation="0,1"
       id="guide902"
       inkscape:locked="false" />
    <sodipodi:guide
       position="3.9687499,18.520834"
       orientation="1,0"
       id="guide904"
       inkscape:locked="false" />
    <sodipodi:guide
       position="7.9374997,7.9375003"
       orientation="1,0"
       id="guide906"
       inkscape:locked="false" />
    <sodipodi:guide
       position="11.90625,0"
       orientation="1,0"
       id="guide908"
       inkscape:locked="false" />
    <sodipodi:guide
       position="15.874999,3.9687501"
       orientation="1,0"
       id="guide910"
       inkscape:locked="false" />
    <sodipodi:guide
       position="19.843749,5.2916668"
       orientation="1,0"
       id="guide912"
       inkscape:locked="false" />
    <sodipodi:guide
       position="23.812499,0"
       orientation="1,0"
       id="guide914"
       inkscape:locked="false" />
    <sodipodi:guide
       position="27.78125,31.75"
       orientation="1,0"
       id="guide916"
       inkscape:locked="false" />
    <sodipodi:guide
       position="31.749999,13.229167"
       orientation="1,0"
       id="guide918"
       inkscape:locked="false" />
  </sodipodi:namedview>
  <metadata
     id="metadata5">
    <rdf:RDF>
      <cc:Work
         rdf:about="">
        <dc:format>image/svg+xml</dc:format>
        <dc:type
           rdf:resource="http://purl.org/dc/dcmitype/StillImage" />
        <dc:title></dc:title>
      </cc:Work>
    </rdf:RDF>
  </metadata>
  <g
     inkscape:label="Base"
     inkscape:groupmode="layer"
     id="layer1"
     transform="translate(0,-196.45832)">
    <rect
       style="opacity:1;fill:#001932;fill-opacity:1;stroke:#cd8f50;stroke-width:0.24728593;stroke-miterlimit:4;stroke-dasharray:none;stroke-opacity:1"
       id="rect12"
       width="27.751017"
       height="100.48119"
       x="0.030233467"
       y="196.48854" />
  </g>
  <g
     inkscape:groupmode="layer"
     id="layer2"
     inkscape:label="Frame">
    <rect
       style="opacity:1;fill:#000009;fill-opacity:0;stroke:#90b0c0;stroke-width:0.5291667;stroke-linejoin:round;stroke-miterlimit:4;stroke-dasharray:none;stroke-opacity:1"
       id="rect831"
       width="27.635698"
       height="100.31165"
       x="0.11500105"
       y="0.11500105" />
  </g>
  <g
     inkscape:groupmode="layer"
     id="layer4"
     inkscape:label="Text">
    <g
       aria-label="bitFetcher"
       style="font-style:italic;font-variant:normal;font-weight:500;font-stretch:normal;font-size:2.11666656px;line-height:1.25;font-family:Lato;-inkscape-font-specification:'Lato, Medium Italic';font-variant-ligatures:normal;font-variant-position:normal;font-variant-caps:normal;font-variant-numeric:normal;font-variant-alternates:normal;font-feature-settings:normal;text-indent:0;text-align:start;text-decoration:none;text-decoration-line:none;text-decoration-style:solid;text-decoration-color:#000000;letter-spacing:0px;word-spacing:0px;text-transform:none;writing-mode:lr-tb;direction:ltr;text-orientation:mixed;dominant-baseline:auto;baseline-shift:baseline;text-anchor:start;white-space:normal;shape-padding:0;opacity:1;vector-effect:none;fill:#ffd700;fill-opacity:1;stroke:none;stroke-width:0.26458332;stroke-linecap:butt;stroke-linejoin:miter;stroke-miterlimit:4;stroke-dasharray:none;stroke-dashoffset:0;stroke-opacity:1"
       id="text1114">
      <path
         d="m 9.5472253,98.714987 q 0.040217,0.05186 0.093133,0.07303 0.053975,0.02117 0.1090084,0.02117 0.052917,0 0.099483,-0.02223 0.046567,-0.02222 0.085725,-0.06032 0.039158,-0.03916 0.068792,-0.09102 0.03069,-0.05186 0.05186,-0.110067 0.02117,-0.05927 0.03175,-0.122766 0.01164,-0.0635 0.01164,-0.125942 0,-0.122767 -0.04339,-0.185208 -0.04233,-0.0635 -0.121709,-0.0635 -0.048683,0 -0.099483,0.03175 -0.049742,0.03069 -0.096308,0.08678 -0.046567,0.05503 -0.087842,0.131233 -0.040217,0.07514 -0.068792,0.164042 z m 0.070908,-0.579967 q 0.039158,-0.06244 0.084667,-0.112183 0.045508,-0.0508 0.09525,-0.08572 0.0508,-0.03598 0.1037167,-0.05503 0.053975,-0.01905 0.110067,-0.01905 0.136525,0 0.213783,0.09948 0.07832,0.09948 0.07832,0.294217 0,0.08784 -0.01905,0.175683 -0.01799,0.08678 -0.05186,0.166158 -0.03281,0.07937 -0.08043,0.147109 -0.04763,0.06773 -0.105833,0.117475 -0.058209,0.04974 -0.1259421,0.07832 -0.066675,0.02752 -0.1407583,0.02752 -0.084667,0 -0.1534583,-0.03493 -0.067733,-0.03598 -0.1121833,-0.09948 l -0.013758,0.06032 q -0.00847,0.03069 -0.023283,0.04551 -0.014817,0.01376 -0.048683,0.01376 H 9.317567 l 0.1894416,-1.5621 h 0.2021417 z"
         style="font-style:italic;font-variant:normal;font-weight:500;font-stretch:normal;font-size:2.11666656px;line-height:1.25;font-family:Lato;-inkscape-font-specification:'Lato, Medium Italic';font-variant-ligatures:normal;font-variant-position:normal;font-variant-caps:normal;font-variant-numeric:normal;font-variant-alternates:normal;font-feature-settings:normal;text-indent:0;text-align:start;text-decoration:none;text-decoration-line:none;text-decoration-style:solid;text-decoration-color:#000000;letter-spacing:0px;word-spacing:0px;text-transform:none;writing-mode:lr-tb;direction:ltr;text-orientation:mixed;dominant-baseline:auto;text-anchor:start;white-space:normal;shape-padding:0;vector-effect:none;fill:#ffd700;fill-opacity:1;stroke:none;stroke-width:0.26458332;stroke-linecap:butt;stroke-linejoin:miter;stroke-miterlimit:4;stroke-dasharray:none;stroke-dashoffset:0;stroke-opacity:1"
         id="path6168"
         inkscape:connector-curvature="0" />
      <path
         d="m 10.786004,97.878904 -0.130175,1.075266 h -0.2032 l 0.129117,-1.075266 z m 0.06985,-0.332317 q 0,0.02858 -0.0127,0.05503 -0.01164,0.0254 -0.03175,0.04551 -0.01905,0.01905 -0.04445,0.03069 -0.0254,0.01058 -0.05186,0.01058 -0.02646,0 -0.0508,-0.01058 -0.02434,-0.01164 -0.04339,-0.03069 -0.01799,-0.02011 -0.02963,-0.04551 -0.01058,-0.02646 -0.01058,-0.05503 0,-0.02858 0.01058,-0.05398 0.01164,-0.02646 0.03069,-0.04551 0.01905,-0.02011 0.04339,-0.03175 0.0254,-0.01164 0.05186,-0.01164 0.02646,0 0.05186,0.01164 0.0254,0.01058 0.04445,0.03069 0.01905,0.01905 0.03069,0.04551 0.01164,0.0254 0.01164,0.05503 z"
         style="font-style:italic;font-variant:normal;font-weight:500;font-stretch:normal;font-size:2.11666656px;line-height:1.25;font-family:Lato;-inkscape-font-specification:'Lato, Medium Italic';font-variant-ligatures:normal;font-variant-position:normal;font-variant-caps:normal;font-variant-numeric:normal;font-variant-alternates:normal;font-feature-settings:normal;text-indent:0;text-align:start;text-decoration:none;text-decoration-line:none;text-decoration-style:solid;text-decoration-color:#000000;letter-spacing:0px;word-spacing:0px;text-transform:none;writing-mode:lr-tb;direction:ltr;text-orientation:mixed;dominant-baseline:auto;text-anchor:start;white-space:normal;shape-padding:0;vector-effect:none;fill:#ffd700;fill-opacity:1;stroke:none;stroke-width:0.26458332;stroke-linecap:butt;stroke-linejoin:miter;stroke-miterlimit:4;stroke-dasharray:none;stroke-dashoffset:0;stroke-opacity:1"
         id="path6170"
         inkscape:connector-curvature="0" />
      <path
         d="m 11.024923,98.746737 q 0,-0.0063 0,-0.01587 0,-0.01058 0.0011,-0.02963 0.0021,-0.01905 0.0053,-0.0508 0.0042,-0.03175 0.01058,-0.08149 l 0.06456,-0.522817 h -0.115359 q -0.01588,0 -0.02646,-0.01058 -0.0095,-0.01164 -0.0064,-0.03387 l 0.0095,-0.08361 0.164042,-0.02434 0.08255,-0.320675 q 0.0053,-0.01799 0.01693,-0.02752 0.0127,-0.01058 0.03069,-0.01058 h 0.110066 l -0.04551,0.360892 h 0.276225 l -0.01693,0.150283 h -0.277284 l -0.0635,0.512234 q -0.0053,0.04339 -0.0085,0.06985 -0.0032,0.02646 -0.0053,0.04233 -0.0011,0.01482 -0.0021,0.02117 0,0.0063 0,0.0095 0,0.04974 0.02434,0.07514 0.02434,0.0254 0.06456,0.0254 0.02646,0 0.04551,-0.0074 0.02011,-0.0074 0.03492,-0.01588 0.01482,-0.0095 0.02434,-0.01693 0.01058,-0.0074 0.01905,-0.0074 0.0095,0 0.01482,0.0053 0.0053,0.0042 0.01058,0.01482 l 0.04339,0.09948 q -0.05397,0.04657 -0.12065,0.07197 -0.06668,0.0254 -0.134408,0.0254 -0.105834,0 -0.167217,-0.05715 -0.06138,-0.05821 -0.0635,-0.167217 z"
         style="font-style:italic;font-variant:normal;font-weight:500;font-stretch:normal;font-size:2.11666656px;line-height:1.25;font-family:Lato;-inkscape-font-specification:'Lato, Medium Italic';font-variant-ligatures:normal;font-variant-position:normal;font-variant-caps:normal;font-variant-numeric:normal;font-variant-alternates:normal;font-feature-settings:normal;text-indent:0;text-align:start;text-decoration:none;text-decoration-line:none;text-decoration-style:solid;text-decoration-color:#000000;letter-spacing:0px;word-spacing:0px;text-transform:none;writing-mode:lr-tb;direction:ltr;text-orientation:mixed;dominant-baseline:auto;text-anchor:start;white-space:normal;shape-padding:0;vector-effect:none;fill:#ffd700;fill-opacity:1;stroke:none;stroke-width:0.26458332;stroke-linecap:butt;stroke-linejoin:miter;stroke-miterlimit:4;stroke-dasharray:none;stroke-dashoffset:0;stroke-opacity:1"
         id="path6172"
         inkscape:connector-curvature="0" />
      <path
         d="m 12.09427,97.611145 -0.0635,0.519642 h 0.555625 l -0.02328,0.176742 h -0.554566 l -0.07938,0.646641 h -0.218017 l 0.186267,-1.519766 h 0.871008 l -0.02223,0.176741 z"
         style="font-style:italic;font-variant:normal;font-weight:500;font-stretch:normal;font-size:2.11666656px;line-height:1.25;font-family:Lato;-inkscape-font-specification:'Lato, Medium Italic';font-variant-ligatures:normal;font-variant-position:normal;font-variant-caps:normal;font-variant-numeric:normal;font-variant-alternates:normal;font-feature-settings:normal;text-indent:0;text-align:start;text-decoration:none;text-decoration-line:none;text-decoration-style:solid;text-decoration-color:#000000;letter-spacing:0px;word-spacing:0px;text-transform:none;writing-mode:lr-tb;direction:ltr;text-orientation:mixed;dominant-baseline:auto;text-anchor:start;white-space:normal;shape-padding:0;vector-effect:none;fill:#ffd700;fill-opacity:1;stroke:none;stroke-width:0.26458332;stroke-linecap:butt;stroke-linejoin:miter;stroke-miterlimit:4;stroke-dasharray:none;stroke-dashoffset:0;stroke-opacity:1"
         id="path6174"
         inkscape:connector-curvature="0" />
      <path
         d="m 13.249606,98.011195 q -0.0635,0 -0.116417,0.02646 -0.05292,0.0254 -0.09525,0.07197 -0.04233,0.04551 -0.07197,0.10795 -0.02963,0.06138 -0.04657,0.134409 0.155575,-0.02011 0.248708,-0.04445 0.09419,-0.02434 0.144992,-0.05292 0.0508,-0.02963 0.06668,-0.06244 0.01693,-0.03281 0.01693,-0.06985 0,-0.01799 -0.0085,-0.03704 -0.0074,-0.02011 -0.0254,-0.03598 -0.01693,-0.01693 -0.04551,-0.02752 -0.02752,-0.01058 -0.06773,-0.01058 z m 0.306916,0.744009 q -0.05503,0.05609 -0.106891,0.09631 -0.05186,0.04022 -0.106892,0.06668 -0.05397,0.02646 -0.113242,0.0381 -0.05927,0.0127 -0.129116,0.0127 -0.09208,0 -0.167217,-0.03069 -0.07408,-0.03175 -0.125942,-0.0889 -0.05186,-0.05715 -0.08043,-0.137583 -0.02752,-0.08149 -0.02752,-0.182033 0,-0.08361 0.01693,-0.1651 0.01799,-0.08255 0.05186,-0.155575 0.03387,-0.07408 0.08255,-0.137584 0.04868,-0.0635 0.111125,-0.109008 0.06244,-0.04657 0.137583,-0.07197 0.07514,-0.02646 0.161925,-0.02646 0.08255,0 0.142875,0.02328 0.06033,0.02328 0.09948,0.06032 0.04022,0.03598 0.05927,0.08043 0.01905,0.04445 0.01905,0.08678 0,0.06985 -0.02858,0.129117 -0.02858,0.05821 -0.104775,0.105833 -0.07514,0.04657 -0.207433,0.08149 -0.132292,0.03493 -0.339725,0.05609 -0.0011,0.0095 -0.0011,0.01905 0,0.0095 0,0.01905 0,0.138642 0.05927,0.20955 0.06033,0.07091 0.180975,0.07091 0.04974,0 0.0889,-0.0095 0.03916,-0.01058 0.06879,-0.0254 0.03069,-0.01482 0.05397,-0.03175 0.02328,-0.01799 0.04233,-0.03281 0.02011,-0.01482 0.03704,-0.02434 0.01693,-0.01058 0.03492,-0.01058 0.01164,0 0.02011,0.0063 0.0095,0.0053 0.01799,0.01376 z"
         style="font-style:italic;font-variant:normal;font-weight:500;font-stretch:normal;font-size:2.11666656px;line-height:1.25;font-family:Lato;-inkscape-font-specification:'Lato, Medium Italic';font-variant-ligatures:normal;font-variant-position:normal;font-variant-caps:normal;font-variant-numeric:normal;font-variant-alternates:normal;font-feature-settings:normal;text-indent:0;text-align:start;text-decoration:none;text-decoration-line:none;text-decoration-style:solid;text-decoration-color:#000000;letter-spacing:0px;word-spacing:0px;text-transform:none;writing-mode:lr-tb;direction:ltr;text-orientation:mixed;dominant-baseline:auto;text-anchor:start;white-space:normal;shape-padding:0;vector-effect:none;fill:#ffd700;fill-opacity:1;stroke:none;stroke-width:0.26458332;stroke-linecap:butt;stroke-linejoin:miter;stroke-miterlimit:4;stroke-dasharray:none;stroke-dashoffset:0;stroke-opacity:1"
         id="path6176"
         inkscape:connector-curvature="0" />
      <path
         d="m 13.79478,98.746737 q 0,-0.0063 0,-0.01587 0,-0.01058 0.0011,-0.02963 0.0021,-0.01905 0.0053,-0.0508 0.0042,-0.03175 0.01058,-0.08149 l 0.06456,-0.522817 h -0.115358 q -0.01588,0 -0.02646,-0.01058 -0.0095,-0.01164 -0.0064,-0.03387 l 0.0095,-0.08361 0.164041,-0.02434 0.08255,-0.320675 q 0.0053,-0.01799 0.01693,-0.02752 0.0127,-0.01058 0.03069,-0.01058 h 0.110067 l -0.04551,0.360892 h 0.276225 l -0.01693,0.150283 h -0.277283 l -0.0635,0.512234 q -0.0053,0.04339 -0.0085,0.06985 -0.0032,0.02646 -0.0053,0.04233 -0.0011,0.01482 -0.0021,0.02117 0,0.0063 0,0.0095 0,0.04974 0.02434,0.07514 0.02434,0.0254 0.06456,0.0254 0.02646,0 0.04551,-0.0074 0.02011,-0.0074 0.03493,-0.01588 0.01482,-0.0095 0.02434,-0.01693 0.01058,-0.0074 0.01905,-0.0074 0.0095,0 0.01482,0.0053 0.0053,0.0042 0.01058,0.01482 l 0.04339,0.09948 q -0.05397,0.04657 -0.12065,0.07197 -0.06668,0.0254 -0.134409,0.0254 -0.105833,0 -0.167216,-0.05715 -0.06138,-0.05821 -0.0635,-0.167217 z"
         style="font-style:italic;font-variant:normal;font-weight:500;font-stretch:normal;font-size:2.11666656px;line-height:1.25;font-family:Lato;-inkscape-font-specification:'Lato, Medium Italic';font-variant-ligatures:normal;font-variant-position:normal;font-variant-caps:normal;font-variant-numeric:normal;font-variant-alternates:normal;font-feature-settings:normal;text-indent:0;text-align:start;text-decoration:none;text-decoration-line:none;text-decoration-style:solid;text-decoration-color:#000000;letter-spacing:0px;word-spacing:0px;text-transform:none;writing-mode:lr-tb;direction:ltr;text-orientation:mixed;dominant-baseline:auto;text-anchor:start;white-space:normal;shape-padding:0;vector-effect:none;fill:#ffd700;fill-opacity:1;stroke:none;stroke-width:0.26458332;stroke-linecap:butt;stroke-linejoin:miter;stroke-miterlimit:4;stroke-dasharray:none;stroke-dashoffset:0;stroke-opacity:1"
         id="path6178"
         inkscape:connector-curvature="0" />
      <path
         d="m 15.251476,98.761554 q -0.05397,0.06032 -0.103716,0.100541 -0.04974,0.04022 -0.100542,0.06456 -0.04974,0.02328 -0.103717,0.03281 -0.05292,0.0095 -0.116416,0.0095 -0.09313,0 -0.166159,-0.03175 -0.07197,-0.03175 -0.121708,-0.08996 -0.04868,-0.05821 -0.07408,-0.1397 -0.0254,-0.08149 -0.0254,-0.180975 0,-0.08678 0.01799,-0.169334 0.01905,-0.08361 0.05398,-0.156633 0.03492,-0.07408 0.08467,-0.135467 0.04974,-0.06244 0.111125,-0.106891 0.06138,-0.04551 0.13335,-0.06985 0.07303,-0.0254 0.154517,-0.0254 0.106891,0 0.178858,0.0381 0.07302,0.0381 0.128058,0.111125 l -0.06456,0.07832 q -0.0085,0.0085 -0.01905,0.01482 -0.0095,0.0064 -0.02117,0.0064 -0.01482,0 -0.02963,-0.0127 -0.01482,-0.0127 -0.03704,-0.02752 -0.02223,-0.01588 -0.05609,-0.02858 -0.03281,-0.0127 -0.08467,-0.0127 -0.06985,0 -0.132292,0.0381 -0.06244,0.03704 -0.109008,0.103717 -0.04657,0.06668 -0.07408,0.157692 -0.02752,0.09102 -0.02752,0.197908 0,0.0635 0.01482,0.115358 0.01482,0.05186 0.04233,0.08784 0.02858,0.03598 0.06985,0.05609 0.04233,0.01905 0.09631,0.01905 0.04551,0 0.08043,-0.0095 0.03598,-0.0095 0.06244,-0.02328 0.02752,-0.01376 0.04868,-0.03069 0.02117,-0.01693 0.0381,-0.03069 0.01693,-0.01376 0.03175,-0.02328 0.01482,-0.0095 0.02963,-0.0095 0.02117,0 0.0381,0.01905 l 0.05186,0.0635 z"
         style="font-style:italic;font-variant:normal;font-weight:500;font-stretch:normal;font-size:2.11666656px;line-height:1.25;font-family:Lato;-inkscape-font-specification:'Lato, Medium Italic';font-variant-ligatures:normal;font-variant-position:normal;font-variant-caps:normal;font-variant-numeric:normal;font-variant-alternates:normal;font-feature-settings:normal;text-indent:0;text-align:start;text-decoration:none;text-decoration-line:none;text-decoration-style:solid;text-decoration-color:#000000;letter-spacing:0px;word-spacing:0px;text-transform:none;writing-mode:lr-tb;direction:ltr;text-orientation:mixed;dominant-baseline:auto;text-anchor:start;white-space:normal;shape-padding:0;vector-effect:none;fill:#ffd700;fill-opacity:1;stroke:none;stroke-width:0.26458332;stroke-linecap:butt;stroke-linejoin:miter;stroke-miterlimit:4;stroke-dasharray:none;stroke-dashoffset:0;stroke-opacity:1"
         id="path6180"
         inkscape:connector-curvature="0" />
      <path
         d="m 15.708941,98.102212 q 0.08255,-0.118533 0.182033,-0.178858 0.09948,-0.06033 0.2032,-0.06033 0.06879,0 0.12065,0.02752 0.05292,0.02646 0.08573,0.07832 0.03281,0.05186 0.04445,0.128058 0.0127,0.07514 0.0011,0.172509 l -0.08043,0.684741 h -0.206375 l 0.08043,-0.684741 q 0.01482,-0.121709 -0.01482,-0.178859 -0.02858,-0.05715 -0.10795,-0.05715 -0.04657,0 -0.09525,0.0254 -0.04763,0.0254 -0.09419,0.07197 -0.04551,0.04551 -0.08573,0.112183 -0.03916,0.06562 -0.06773,0.14605 l -0.06879,0.56515 h -0.206375 l 0.189442,-1.5621 h 0.206375 z"
         style="font-style:italic;font-variant:normal;font-weight:500;font-stretch:normal;font-size:2.11666656px;line-height:1.25;font-family:Lato;-inkscape-font-specification:'Lato, Medium Italic';font-variant-ligatures:normal;font-variant-position:normal;font-variant-caps:normal;font-variant-numeric:normal;font-variant-alternates:normal;font-feature-settings:normal;text-indent:0;text-align:start;text-decoration:none;text-decoration-line:none;text-decoration-style:solid;text-decoration-color:#000000;letter-spacing:0px;word-spacing:0px;text-transform:none;writing-mode:lr-tb;direction:ltr;text-orientation:mixed;dominant-baseline:auto;text-anchor:start;white-space:normal;shape-padding:0;vector-effect:none;fill:#ffd700;fill-opacity:1;stroke:none;stroke-width:0.26458332;stroke-linecap:butt;stroke-linejoin:miter;stroke-miterlimit:4;stroke-dasharray:none;stroke-dashoffset:0;stroke-opacity:1"
         id="path6182"
         inkscape:connector-curvature="0" />
      <path
         d="m 17.077796,98.011195 q -0.0635,0 -0.116417,0.02646 -0.05292,0.0254 -0.09525,0.07197 -0.04233,0.04551 -0.07197,0.10795 -0.02963,0.06138 -0.04657,0.134409 0.155575,-0.02011 0.248708,-0.04445 0.09419,-0.02434 0.144992,-0.05292 0.0508,-0.02963 0.06668,-0.06244 0.01693,-0.03281 0.01693,-0.06985 0,-0.01799 -0.0085,-0.03704 -0.0074,-0.02011 -0.0254,-0.03598 -0.01693,-0.01693 -0.04551,-0.02752 -0.02752,-0.01058 -0.06773,-0.01058 z m 0.306917,0.744009 q -0.05503,0.05609 -0.106892,0.09631 -0.05186,0.04022 -0.106892,0.06668 -0.05398,0.02646 -0.113241,0.0381 -0.05927,0.0127 -0.129117,0.0127 -0.09208,0 -0.167217,-0.03069 -0.07408,-0.03175 -0.125941,-0.0889 -0.05186,-0.05715 -0.08043,-0.137583 -0.02752,-0.08149 -0.02752,-0.182033 0,-0.08361 0.01693,-0.1651 0.01799,-0.08255 0.05186,-0.155575 0.03387,-0.07408 0.08255,-0.137584 0.04868,-0.0635 0.111125,-0.109008 0.06244,-0.04657 0.137584,-0.07197 0.07514,-0.02646 0.161925,-0.02646 0.08255,0 0.142875,0.02328 0.06032,0.02328 0.09948,0.06032 0.04022,0.03598 0.05927,0.08043 0.01905,0.04445 0.01905,0.08678 0,0.06985 -0.02858,0.129117 -0.02858,0.05821 -0.104775,0.105833 -0.07514,0.04657 -0.207434,0.08149 -0.132291,0.03493 -0.339725,0.05609 -0.0011,0.0095 -0.0011,0.01905 0,0.0095 0,0.01905 0,0.138642 0.05927,0.20955 0.06032,0.07091 0.180975,0.07091 0.04974,0 0.0889,-0.0095 0.03916,-0.01058 0.06879,-0.0254 0.03069,-0.01482 0.05398,-0.03175 0.02328,-0.01799 0.04233,-0.03281 0.02011,-0.01482 0.03704,-0.02434 0.01693,-0.01058 0.03493,-0.01058 0.01164,0 0.02011,0.0063 0.0095,0.0053 0.01799,0.01376 z"
         style="font-style:italic;font-variant:normal;font-weight:500;font-stretch:normal;font-size:2.11666656px;line-height:1.25;font-family:Lato;-inkscape-font-specification:'Lato, Medium Italic';font-variant-ligatures:normal;font-variant-position:normal;font-variant-caps:normal;font-variant-numeric:normal;font-variant-alternates:normal;font-feature-settings:normal;text-indent:0;text-align:start;text-decoration:none;text-decoration-line:none;text-decoration-style:solid;text-decoration-color:#000000;letter-spacing:0px;word-spacing:0px;text-transform:none;writing-mode:lr-tb;direction:ltr;text-orientation:mixed;dominant-baseline:auto;text-anchor:start;white-space:normal;shape-padding:0;vector-effect:none;fill:#ffd700;fill-opacity:1;stroke:none;stroke-width:0.26458332;stroke-linecap:butt;stroke-linejoin:miter;stroke-miterlimit:4;stroke-dasharray:none;stroke-dashoffset:0;stroke-opacity:1"
         id="path6184"
         inkscape:connector-curvature="0" />
      <path
         d="m 17.832321,98.168887 q 0.04233,-0.08784 0.09102,-0.151342 0.04868,-0.06456 0.1016,-0.100541 0.05292,-0.03704 0.109008,-0.04445 0.05715,-0.0085 0.1143,0.01693 l -0.03704,0.198967 q -0.136525,-0.05503 -0.239184,0.03704 -0.102658,0.09207 -0.166158,0.340784 l -0.05927,0.487891 h -0.202141 l 0.130175,-1.077383 h 0.103716 q 0.03387,0 0.05186,0.01693 0.01799,0.01693 0.01799,0.05292 z"
         style="font-style:italic;font-variant:normal;font-weight:500;font-stretch:normal;font-size:2.11666656px;line-height:1.25;font-family:Lato;-inkscape-font-specification:'Lato, Medium Italic';font-variant-ligatures:normal;font-variant-position:normal;font-variant-caps:normal;font-variant-numeric:normal;font-variant-alternates:normal;font-feature-settings:normal;text-indent:0;text-align:start;text-decoration:none;text-decoration-line:none;text-decoration-style:solid;text-decoration-color:#000000;letter-spacing:0px;word-spacing:0px;text-transform:none;writing-mode:lr-tb;direction:ltr;text-orientation:mixed;dominant-baseline:auto;text-anchor:start;white-space:normal;shape-padding:0;vector-effect:none;fill:#ffd700;fill-opacity:1;stroke:none;stroke-width:0.26458332;stroke-linecap:butt;stroke-linejoin:miter;stroke-miterlimit:4;stroke-dasharray:none;stroke-dashoffset:0;stroke-opacity:1"
         id="path6186"
         inkscape:connector-curvature="0" />
    </g>
  </g>
</svg>
